<svg width="68" height="22" xmlns="http://www.w3.org/2000/svg" xmlns:xlink="http://www.w3.org/1999/xlink" xmlns:svgjs="http://svgjs.com/svgjs" viewBox="0 0.343 68 21.314" fill="#f5f5f5"><svg xmlns="http://www.w3.org/2000/svg" width="68" height="22" viewBox="2 1.999 67 21"><path paint-order="stroke fill markers" fill-rule="evenodd" d="M35.5 1.999c5.799 0 10.5 4.701 10.5 10.5C46 18.3 41.299 23 35.5 23 29.7 23 25 18.3 25 12.5 25 6.7 29.7 2 35.5 2zm27 4a6.5 6.5 0 1 1 0 13 6.5 6.5 0 0 1 0-13zm-54 0a6.5 6.5 0 1 1 0 13 6.5 6.5 0 0 1 0-13z"/></svg></svg>