<svg width="0" height="0" class="hidden">
  <symbol viewBox="0 0 30 30" xmlns="http://www.w3.org/2000/svg" id="inst">
    <path d="M17.871 15A2.868 2.868 0 0 1 15 17.871 2.868 2.868 0 0 1 12.129 15 2.868 2.868 0 0 1 15 12.129 2.868 2.868 0 0 1 17.871 15z"></path>
    <path d="M21.715 9.92a2.66 2.66 0 0 0-.645-.99 2.66 2.66 0 0 0-.99-.645c-.305-.117-.762-.258-1.6-.299-.908-.04-1.183-.052-3.48-.052-2.303 0-2.572.005-3.48.052-.838.041-1.295.182-1.6.3a2.66 2.66 0 0 0-.99.644 2.66 2.66 0 0 0-.645.99c-.117.305-.258.762-.299 1.6-.04.908-.052 1.177-.052 3.48 0 2.297.011 2.572.052 3.48.041.838.176 1.295.3 1.6.14.375.357.715.644.99.275.287.615.504.99.645.305.117.762.258 1.6.299.908.04 1.177.052 3.48.052s2.572-.005 3.48-.052c.838-.041 1.295-.176 1.6-.3a2.844 2.844 0 0 0 1.635-1.634c.117-.305.258-.762.299-1.6.04-.908.052-1.183.052-3.48 0-2.303-.005-2.572-.052-3.48-.041-.838-.182-1.295-.3-1.6zM15 19.424a4.424 4.424 0 1 1 0-8.847 4.424 4.424 0 0 1 0 8.847zm4.6-7.986a1.033 1.033 0 0 1-1.032-1.032 1.033 1.033 0 0 1 2.063 0c0 .569-.463 1.031-1.031 1.031z"></path>
    <path d="M15 0C6.715 0 0 6.715 0 15s6.715 15 15 15 15-6.715 15-15S23.285 0 15 0zm8.56 18.55c-.04.915-.187 1.542-.398 2.093a4.392 4.392 0 0 1-2.52 2.52c-.544.21-1.171.357-2.091.398-.92.04-1.213.052-3.551.052s-2.63-.011-3.55-.052c-.915-.041-1.542-.188-2.093-.399a4.193 4.193 0 0 1-1.523-.996c-.44-.428-.78-.95-.996-1.523-.211-.545-.358-1.172-.399-2.092-.04-.92-.052-1.213-.052-3.551s.011-2.63.052-3.55c.041-.915.188-1.542.399-2.093a4.194 4.194 0 0 1 .996-1.523c.428-.44.95-.78 1.523-.996.551-.211 1.172-.358 2.092-.399.92-.04 1.213-.052 3.551-.052s2.63.011 3.55.052c.915.041 1.542.188 2.093.399a4.193 4.193 0 0 1 1.523.996c.44.428.78.95.996 1.523.211.551.358 1.172.399 2.092.04.92.052 1.213.052 3.551s-.011 2.63-.052 3.55z"></path>
  </symbol>
  <symbol viewBox="0 0 30 30" xmlns="http://www.w3.org/2000/svg" id="tlg">
    <path d="M15 30c8.285 0 15-6.715 15-15S23.285 0 15 0 0 6.715 0 15s6.715 15 15 15zM6.861 14.678L21.328 9.1c.674-.24 1.26.164 1.037 1.177l-2.46 11.602c-.182.82-.675 1.025-1.354.633l-3.75-2.766-1.81 1.74c-.2.2-.37.37-.757.37l.264-3.815 6.955-6.275c.305-.264-.07-.416-.469-.153l-8.59 5.409-3.703-1.155c-.802-.258-.82-.803.17-1.19z" ></path>
  </symbol>
  <symbol viewBox="0 0 30 30" xmlns="http://www.w3.org/2000/svg" id="v_k">
    <path d="M15 0C6.718 0 0 6.718 0 15s6.718 15 15 15 15-6.718 15-15S23.282 0 15 0zm7.607 16.626c.706.675 1.442 1.319 2.056 2.086.276.337.552.675.736 1.073.276.552.03 1.166-.46 1.197H21.87c-.797.06-1.41-.246-1.963-.798-.43-.43-.828-.89-1.227-1.35a2.115 2.115 0 0 0-.552-.49c-.43-.277-.798-.184-1.012.245-.246.46-.307.95-.338 1.442-.03.736-.245.92-.982.95-1.564.062-3.036-.153-4.386-.95-1.196-.706-2.147-1.657-2.945-2.761-1.595-2.147-2.791-4.51-3.895-6.933-.246-.552-.062-.828.552-.858a48.592 48.592 0 0 1 3.006 0c.399 0 .675.245.828.613.552 1.319 1.196 2.607 2.025 3.773.214.307.46.614.767.859.368.245.613.153.797-.245a3.39 3.39 0 0 0 .184-.798c.092-.92.092-1.84-.061-2.76-.092-.614-.4-.982-.982-1.105-.307-.061-.245-.153-.123-.337.246-.277.491-.46.951-.46h3.467c.552.122.674.337.736.889v3.865c0 .215.092.859.49.982.307.092.522-.154.706-.338.828-.89 1.411-1.932 1.963-3.006.246-.49.43-.982.645-1.472.153-.368.368-.553.797-.553h3.344c.092 0 .184 0 .306.031.552.092.706.338.552.89-.276.859-.797 1.595-1.319 2.3-.552.767-1.165 1.503-1.717 2.301-.552.736-.522 1.104.122 1.718z" ></path>
  </symbol>
  <symbol viewBox="0 0 30 30" xmlns="http://www.w3.org/2000/svg" id="fb">
    <path d="M30 15c0-8.285-6.715-15-15-15S0 6.715 0 15s6.715 15 15 15c.088 0 .176 0 .264-.006V18.322H12.04v-3.756h3.223v-2.765c0-3.205 1.957-4.951 4.816-4.951 1.371 0 2.549.1 2.889.146v3.352H21c-1.553 0-1.857.738-1.857 1.822v2.39h3.72l-.486 3.756h-3.234V29.42C25.413 27.62 30 21.85 30 15z"></path>
  </symbol>
</svg>