<svg width="0" height="0" class="hidden">
  <symbol xmlns="http://www.w3.org/2000/svg" viewBox="0 0 60 60" id="battery">
    <path d="M42.535 4H36V0H24v4h-6.535A3.47 3.47 0 0 0 14 7.465v49.07A3.47 3.47 0 0 0 17.465 60h25.07A3.47 3.47 0 0 0 46 56.535V7.465A3.47 3.47 0 0 0 42.535 4zM16 19h28v12H16zm0 14h28v12H16zM26 2h8v2h-8zm-8.535 4h25.07C43.344 6 44 6.656 44 7.465V17H16V7.465C16 6.656 16.656 6 17.465 6zm25.07 52h-25.07A1.465 1.465 0 0 1 16 56.535V47h28v9.535c0 .809-.656 1.465-1.465 1.465zm0 0"></path>
  </symbol>
  <symbol xmlns="http://www.w3.org/2000/svg" viewBox="0 0 60 60" id="bluetooth">
    <path d="M45.512 43.805L32.91 30l12.602-13.8a2.148 2.148 0 0 0-.223-3.11L29.97.488a2.146 2.146 0 0 0-2.282-.281 2.142 2.142 0 0 0-1.23 1.941v20.786L17.66 13.3a2.149 2.149 0 0 0-3.172 2.898l11.969 13.106v1.39l-11.969 13.11a2.147 2.147 0 1 0 3.172 2.894l8.793-9.633v20.786c0 .832.48 1.586 1.235 1.941.289.14.605.207.914.207.492 0 .972-.168 1.367-.488l15.32-12.602c.457-.375.738-.918.781-1.508a2.148 2.148 0 0 0-.558-1.597zM30.75 6.695l10.066 8.278-10.066 11.02zm0 46.61V34.008l10.066 11.02zm0 0"></path>
  </symbol>
  <symbol xmlns="http://www.w3.org/2000/svg" viewBox="0 0 60 60" id="charger">
    <path d="M55.2 18.07v-5.254c0-.976-.79-1.765-1.766-1.765h-8.196c-.972 0-1.761.789-1.761 1.765v5.254a1.76 1.76 0 0 0-1.606 1.754v9.492a3.923 3.923 0 0 0 3.918 3.918h1.785v18.801a4.441 4.441 0 0 1-4.437 4.434h-19.29a4.439 4.439 0 0 1-4.437-4.434v-3.8h3.754c.973 0 1.766-.79 1.766-1.766v-5.723h1.87a5.301 5.301 0 0 0 5.298-5.297V19.445a5.308 5.308 0 0 0-3.746-5.062V8.332c0-.977-.79-1.766-1.766-1.766h-2.469v-4.8a1.764 1.764 0 1 0-3.527 0v4.8h-5.887v-4.8a1.764 1.764 0 1 0-3.527 0v4.8H8.703c-.973 0-1.762.79-1.762 1.766v6.05a5.303 5.303 0 0 0-3.746 5.063V35.45a5.3 5.3 0 0 0 5.293 5.297h1.875v5.723c0 .976.79 1.765 1.766 1.765h3.754v3.801c0 4.39 3.57 7.965 7.965 7.965h19.289c4.39 0 7.965-3.574 7.965-7.965v-18.8h1.78a3.924 3.924 0 0 0 3.923-3.919v-9.492a1.76 1.76 0 0 0-1.606-1.754zm-30.376-7.972v4.054H10.47v-4.054zM6.723 35.449V19.445c0-.972.793-1.765 1.765-1.765h18.313c.976 0 1.765.793 1.765 1.765V35.45c0 .977-.789 1.766-1.765 1.766H8.488c-.972 0-1.765-.79-1.765-1.766zm7.172 5.297h7.503v3.961h-7.503zm37.777-26.168v3.485h-4.668v-3.485zm1.605 14.738a.392.392 0 0 1-.394.391h-7.094a.392.392 0 0 1-.39-.39V21.59h7.878zm0 0"></path>
    <path d="M15.41 29.215h1.79l-.782 1.808a1.766 1.766 0 0 0 3.242 1.398l1.844-4.273a1.767 1.767 0 0 0-1.621-2.464h-1.79l.778-1.809a1.766 1.766 0 0 0-.922-2.32 1.76 1.76 0 0 0-2.316.922l-1.844 4.273c-.504 1.164.356 2.465 1.621 2.465zm0 0"></path>
  </symbol>
  <symbol xmlns="http://www.w3.org/2000/svg" viewBox="0 0 59 60" id="charging">
    <path d="M39.68 5H19.32c-2.25 0-4.078 1.86-4.078 4.145v46.71c0 2.286 1.828 4.145 4.078 4.145h20.36c2.25 0 4.078-1.86 4.078-4.145V9.145C43.758 6.859 41.93 5 39.68 5zm2.113 50.855c0 1.18-.95 2.145-2.113 2.145H19.32c-1.164 0-2.113-.965-2.113-2.145V9.145c0-1.18.95-2.145 2.113-2.145h20.36c1.164 0 2.113.965 2.113 2.145zm0 0"></path>
    <path d="M34.91 0H24.09a.99.99 0 0 0-.98 1v5c0 .55.437 1 .98 1h10.82a.99.99 0 0 0 .98-1V1c0-.55-.437-1-.98-1zm-.984 5h-8.852V2h8.852zm2.797 22.46a.994.994 0 0 0-.832-.46h-5.899v-9a.997.997 0 0 0-.77-.977.977.977 0 0 0-1.105.555l-6.883 15c-.144.309-.117.672.063.957.18.29.492.465.828.465h5.898v9a.996.996 0 0 0 .985 1 .98.98 0 0 0 .89-.578l6.883-15a1.012 1.012 0 0 0-.058-.961zm-8.7 4.54h-4.355l4.355-9.492zm1.97 6.492V29h4.355zm0 0"></path>
  </symbol>
  <symbol xmlns="http://www.w3.org/2000/svg" viewBox="0 0 60 60" id="gear">
    <path d="M30 14.445c-8.578 0-15.555 6.977-15.555 15.555S21.422 45.555 30 45.555 45.555 38.578 45.555 30 38.578 14.445 30 14.445zm0 28.887c-7.352 0-13.332-5.98-13.332-13.332S22.648 16.668 30 16.668 43.332 22.648 43.332 30 37.352 43.332 30 43.332zm0 0"></path>
    <path d="M56.91 23.332h-2.242a25.25 25.25 0 0 0-2.512-6.062l1.586-1.582a3.09 3.09 0 0 0 0-4.372l-5.058-5.058c-1.168-1.168-3.204-1.168-4.371 0L42.73 7.84a25.53 25.53 0 0 0-6.062-2.508V3.09A3.094 3.094 0 0 0 33.578 0h-7.156a3.094 3.094 0 0 0-3.09 3.09v2.242a25.381 25.381 0 0 0-6.062 2.512l-1.582-1.586c-1.168-1.168-3.208-1.168-4.372 0l-5.058 5.058a3.06 3.06 0 0 0-.906 2.188c0 .824.32 1.598.906 2.184L7.84 17.27a25.397 25.397 0 0 0-2.508 6.062H3.09A3.094 3.094 0 0 0 0 26.422v7.156a3.094 3.094 0 0 0 3.09 3.09h2.242a25.381 25.381 0 0 0 2.512 6.062l-1.586 1.583a3.09 3.09 0 0 0 0 4.37l5.058 5.06c1.168 1.167 3.204 1.171 4.371 0l1.583-1.583a25.666 25.666 0 0 0 6.066 2.512v2.242A3.087 3.087 0 0 0 26.422 60h7.156a3.09 3.09 0 0 0 3.09-3.086v-2.242a25.542 25.542 0 0 0 6.062-2.512l1.583 1.582c1.171 1.172 3.203 1.168 4.37 0l5.06-5.058c.585-.582.905-1.36.905-2.184 0-.824-.32-1.602-.906-2.188L52.16 42.73a25.705 25.705 0 0 0 2.512-6.062h2.242A3.09 3.09 0 0 0 60 33.578v-7.156a3.094 3.094 0 0 0-3.09-3.09zm.867 10.246a.868.868 0 0 1-.867.867h-3.988l-.203.86a23.227 23.227 0 0 1-2.903 7.011l-.464.746 2.82 2.825c.34.336.34.886 0 1.226l-5.059 5.059a.869.869 0 0 1-1.226 0l-2.825-2.82-.746.464a23.227 23.227 0 0 1-7.011 2.903l-.86.203v3.988c0 .48-.39.867-.867.867h-7.156a.868.868 0 0 1-.867-.867v-3.988l-.86-.203a23.227 23.227 0 0 1-7.011-2.903l-.747-.464-2.824 2.82a.869.869 0 0 1-1.226 0l-5.059-5.059a.865.865 0 0 1 0-1.226l2.82-2.825-.464-.746a23.227 23.227 0 0 1-2.903-7.011l-.203-.86H3.09a.868.868 0 0 1-.867-.867v-7.156c0-.477.386-.867.867-.867h3.988l.203-.86a23.227 23.227 0 0 1 2.903-7.011l.464-.747-2.82-2.824a.865.865 0 0 1 0-1.226l5.059-5.059a.869.869 0 0 1 1.226 0l2.825 2.82.746-.464a23.227 23.227 0 0 1 7.011-2.903l.86-.203V3.09c0-.48.39-.867.867-.867h7.156c.477 0 .867.386.867.867v3.988l.86.203a23.227 23.227 0 0 1 7.011 2.903l.746.464 2.825-2.82a.869.869 0 0 1 1.226 0l5.059 5.059c.34.34.34.89 0 1.226l-2.82 2.825.464.746a23.186 23.186 0 0 1 2.903 7.011l.203.86h3.988c.48 0 .867.39.867.867zm0 0"></path>
    <path d="M30 18.89c-6.125 0-11.11 4.985-11.11 11.11 0 6.125 4.985 11.11 11.11 11.11 6.125 0 11.11-4.985 11.11-11.11 0-6.125-4.985-11.11-11.11-11.11zm0 20c-4.902 0-8.89-3.988-8.89-8.89 0-4.902 3.988-8.89 8.89-8.89 4.902 0 8.89 3.988 8.89 8.89 0 4.902-3.988 8.89-8.89 8.89zm0 0"></path>
  </symbol>
  <symbol xmlns="http://www.w3.org/2000/svg" viewBox="0 0 60 60" id="kg">
    <path d="M50.844 16h-13.41a9.714 9.714 0 0 0 2.265-6.242C39.7 4.378 35.324 0 29.941 0c-5.378 0-9.757 4.379-9.757 9.758 0 2.37.851 4.547 2.265 6.242H9.043L.703 60h58.48zM29.94 3.516a6.25 6.25 0 0 1 6.243 6.242A6.25 6.25 0 0 1 29.94 16a6.25 6.25 0 0 1-6.24-6.242 6.25 6.25 0 0 1 6.242-6.242zm-17.988 16H47.93l7.008 36.968H4.949zm0 0"></path>
    <path d="M30.016 31.008h-3.993l-5.578 5.57v-5.57h-2.867v14.047h2.867v-4.801l1.446-1.41 4.37 6.21h3.7l-6.023-8.179zm0 0"></path>
    <path d="M35.688 40h3.789v1.543c-.305.223-.72.441-1.239.648a5.183 5.183 0 0 1-1.945.383 4.807 4.807 0 0 1-2.148-.5 3.186 3.186 0 0 1-1.47-1.469c-.35-.687-.53-1.566-.53-2.617 0-.851.152-1.648.449-2.37a3.99 3.99 0 0 1 .707-1.11c.289-.32.683-.586 1.168-.79.496-.206 1.101-.308 1.8-.308.567 0 1.09.098 1.547.29.438.187.774.429.996.722.243.316.454.773.626 1.355l.16.547 2.64-.722-.14-.555c-.243-.942-.61-1.723-1.086-2.324-.489-.618-1.164-1.102-2.008-1.442-.82-.328-1.742-.492-2.746-.492-1.371 0-2.61.29-3.676.86-1.09.581-1.937 1.484-2.512 2.68a8.573 8.573 0 0 0-.843 3.765c0 1.351.285 2.597.855 3.703a5.952 5.952 0 0 0 2.59 2.601c1.113.582 2.363.88 3.719.88a8.334 8.334 0 0 0 2.949-.544 10.374 10.374 0 0 0 2.75-1.597l.219-.176v-5.645l-6.621.012zm0 0"></path>
  </symbol>
  <symbol xmlns="http://www.w3.org/2000/svg" viewBox="0 0 60 60" id="logo">
    <path d="M30 39c4.969 0 9-4.031 9-9s-4.031-9-9-9-9 4.031-9 9 4.031 9 9 9zm0-39c-3.055 0-6.086.465-9 1.379V18a14.995 14.995 0 0 1 18.61.484 14.997 14.997 0 0 1-13.055 26.114A14.996 14.996 0 0 1 15 30V4.004C1.953 11.52-3.5 27.539 2.25 41.454c5.746 13.917 20.918 21.413 35.465 17.53 14.547-3.882 23.96-17.945 22.008-32.875C57.77 11.18 45.055.012 30 0zm0 0" fill="#e01f3d"></path>
  </symbol>
  <symbol xmlns="http://www.w3.org/2000/svg" viewBox="0 0 48 60" id="map">
    <path d="M24 .027C14.61.027 0 7.398 0 24.22c0 18.933 24 35.754 24 35.754s24-16.82 24-35.754C48 7.399 33.39.027 24 .027zm0 0" fill="#df213e"></path>
    <path d="M24 29.59c2.95 0 5.328-2.399 5.328-5.371 0-2.973-2.379-5.371-5.328-5.371-2.95 0-5.328 2.398-5.328 5.37 0 2.973 2.379 5.372 5.328 5.372zm0-23.258c-1.813 0-3.61.285-5.328.82v9.907a8.824 8.824 0 0 1 12.433 1.789c2.95 3.96 2.157 9.562-1.777 12.535a8.828 8.828 0 0 1-12.433-1.793 8.98 8.98 0 0 1-1.778-5.371V8.715c-8.504 4.933-11.414 15.867-6.52 24.437 4.895 8.57 15.743 11.504 24.247 6.57 8.504-4.933 11.414-15.867 6.52-24.437A17.678 17.678 0 0 0 24 6.332zm0 0" fill="#fff"></path>
  </symbol>
  <symbol xmlns="http://www.w3.org/2000/svg" viewBox="0 0 60 60" id="noise">
    <path d="M18 0C8.074 0 0 8.746 0 19.55c.04 2.505.727 4.954 1.992 7.114a21.29 21.29 0 0 1 1.535 3.2 2.012 2.012 0 0 1-.668 2.245A4.946 4.946 0 0 0 1 36a5.002 5.002 0 0 0 2.191 4.152c.497.336.797.891.809 1.489V50c0 5.516 4.035 10 9 10s9-4.484 9-10a14.07 14.07 0 0 1 4.898-10.719A25.317 25.317 0 0 0 36 19.5C36 8.746 27.926 0 18 0zm7.602 37.762A16.052 16.052 0 0 0 20 50c0 4.41-3.14 8-7 8s-7-3.59-7-8v-8.36a3.869 3.869 0 0 0-1.637-3.109A3.018 3.018 0 0 1 3 36a2.957 2.957 0 0 1 1.14-2.355 4 4 0 0 0 1.266-4.47 23.78 23.78 0 0 0-1.676-3.5A12.54 12.54 0 0 1 2 19.5C2 9.852 9.18 2 18 2s16 7.852 16 17.5a23.391 23.391 0 0 1-8.398 18.262zm0 0"></path>
    <path d="M18 5C12.426 5 7.676 8.953 5.828 14.477c-.012.03-.02.062-.031.097a16.06 16.06 0 0 0-.8 4.973c0 1.2 0 4.867 2.292 7.164a1 1 0 0 0 1.414-1.414 6.125 6.125 0 0 1-1.512-3.274c.16-.007.32-.02.489-.02C12.27 22 16 26.2 16 31.36c0 .48-.023.93-.059 1.375-.5.532-1.027 1.032-1.586 1.5A11.91 11.91 0 0 0 10 44c0 .55.45 1 1 1s1-.45 1-1a9.932 9.932 0 0 1 3.645-8.238A13.698 13.698 0 0 0 21 24.359C21 18.102 16.29 13 10.5 13c-.664 0-1.328.07-1.98.21A10.831 10.831 0 0 1 18 7c6.066 0 11 5.629 11 12.543a18.237 18.237 0 0 1-6.441 14.172c-.137.12-.293.246-.457.387-1.993 1.652-6.13 5.097-7.094 13.789a.996.996 0 0 0 .883 1.097A.52.52 0 0 0 16 49a.998.998 0 0 0 .992-.89c.88-7.891 4.461-10.872 6.387-12.473.176-.149.34-.282.484-.41A20.17 20.17 0 0 0 31 19.543C31 11.523 25.168 5 18 5zm-7.5 10c4.688 0 8.5 4.2 8.5 9.36a12.75 12.75 0 0 1-1.102 5.5C17.23 24.3 12.906 20 7.68 20c-.23 0-.453.016-.676.031v-.488c0-1.336.191-2.668.566-3.95.93-.39 1.926-.59 2.93-.593zM50 23a11.794 11.794 0 0 1 3.71-8.3.996.996 0 0 0 .306-.993.991.991 0 0 0-.739-.727.995.995 0 0 0-.988.32A13.732 13.732 0 0 0 48 23a13.732 13.732 0 0 0 4.29 9.7.995.995 0 0 0 .987.32.991.991 0 0 0 .739-.727.996.996 0 0 0-.305-.992A11.794 11.794 0 0 1 50 23zm0 0"></path>
    <path d="M56.664 17.254a.993.993 0 0 0-1.41.082 8.246 8.246 0 0 0 0 11.328c.238.27.598.387.95.316a1.01 1.01 0 0 0 .745-.668.992.992 0 0 0-.203-.976 6.257 6.257 0 0 1 0-8.672.993.993 0 0 0-.082-1.41zm0 0"></path>
    <path d="M59.742 20.332a.996.996 0 0 0-1.41-.074 3.49 3.49 0 0 0 0 5.484.99.99 0 0 0 .984.223.997.997 0 0 0 .352-1.707A1.793 1.793 0 0 1 59 23c.04-.492.281-.95.668-1.258.41-.367.445-1 .074-1.41zM45 23c0-4.398 1.973-8.652 5.7-12.285a1.002 1.002 0 0 0-.43-1.68.997.997 0 0 0-.97.25C45.18 13.301 43 18.043 43 23c0 4.957 2.18 9.7 6.3 13.715a1 1 0 1 0 1.4-1.43C46.972 31.652 45 27.398 45 23zm0 0"></path>
    <path d="M40 23c0-5.492 2.32-10.785 6.719-15.3a1.006 1.006 0 0 0-.473-1.672 1.008 1.008 0 0 0-.965.273C40.52 11.199 38 16.977 38 23c0 6.023 2.52 11.8 7.281 16.7a1.001 1.001 0 0 0 1.418.019 1.001 1.001 0 0 0 .02-1.418C42.32 33.785 40 28.492 40 23zm0 0"></path>
  </symbol>
  <symbol xmlns="http://www.w3.org/2000/svg" viewBox="0 0 60 60" id="noise-copy-0">
    <path d="M18 0C8.074 0 0 8.746 0 19.55c.04 2.505.727 4.954 1.992 7.114a21.29 21.29 0 0 1 1.535 3.2 2.012 2.012 0 0 1-.668 2.245A4.946 4.946 0 0 0 1 36a5.002 5.002 0 0 0 2.191 4.152c.497.336.797.891.809 1.489V50c0 5.516 4.035 10 9 10s9-4.484 9-10a14.07 14.07 0 0 1 4.898-10.719A25.317 25.317 0 0 0 36 19.5C36 8.746 27.926 0 18 0zm7.602 37.762A16.052 16.052 0 0 0 20 50c0 4.41-3.14 8-7 8s-7-3.59-7-8v-8.36a3.869 3.869 0 0 0-1.637-3.109A3.018 3.018 0 0 1 3 36a2.957 2.957 0 0 1 1.14-2.355 4 4 0 0 0 1.266-4.47 23.78 23.78 0 0 0-1.676-3.5A12.54 12.54 0 0 1 2 19.5C2 9.852 9.18 2 18 2s16 7.852 16 17.5a23.391 23.391 0 0 1-8.398 18.262zm0 0"></path>
    <path d="M18 5C12.426 5 7.676 8.953 5.828 14.477c-.012.03-.02.062-.031.097a16.06 16.06 0 0 0-.8 4.973c0 1.2 0 4.867 2.292 7.164a1 1 0 0 0 1.414-1.414 6.125 6.125 0 0 1-1.512-3.274c.16-.007.32-.02.489-.02C12.27 22 16 26.2 16 31.36c0 .48-.023.93-.059 1.375-.5.532-1.027 1.032-1.586 1.5A11.91 11.91 0 0 0 10 44c0 .55.45 1 1 1s1-.45 1-1a9.932 9.932 0 0 1 3.645-8.238A13.698 13.698 0 0 0 21 24.359C21 18.102 16.29 13 10.5 13c-.664 0-1.328.07-1.98.21A10.831 10.831 0 0 1 18 7c6.066 0 11 5.629 11 12.543a18.237 18.237 0 0 1-6.441 14.172c-.137.12-.293.246-.457.387-1.993 1.652-6.13 5.097-7.094 13.789a.996.996 0 0 0 .883 1.097A.52.52 0 0 0 16 49a.998.998 0 0 0 .992-.89c.88-7.891 4.461-10.872 6.387-12.473.176-.149.34-.282.484-.41A20.17 20.17 0 0 0 31 19.543C31 11.523 25.168 5 18 5zm-7.5 10c4.688 0 8.5 4.2 8.5 9.36a12.75 12.75 0 0 1-1.102 5.5C17.23 24.3 12.906 20 7.68 20c-.23 0-.453.016-.676.031v-.488c0-1.336.191-2.668.566-3.95.93-.39 1.926-.59 2.93-.593zM50 23a11.794 11.794 0 0 1 3.71-8.3.996.996 0 0 0 .306-.993.991.991 0 0 0-.739-.727.995.995 0 0 0-.988.32A13.732 13.732 0 0 0 48 23a13.732 13.732 0 0 0 4.29 9.7.995.995 0 0 0 .987.32.991.991 0 0 0 .739-.727.996.996 0 0 0-.305-.992A11.794 11.794 0 0 1 50 23zm0 0"></path>
    <path d="M56.664 17.254a.993.993 0 0 0-1.41.082 8.246 8.246 0 0 0 0 11.328c.238.27.598.387.95.316a1.01 1.01 0 0 0 .745-.668.992.992 0 0 0-.203-.976 6.257 6.257 0 0 1 0-8.672.993.993 0 0 0-.082-1.41zm0 0"></path>
    <path d="M59.742 20.332a.996.996 0 0 0-1.41-.074 3.49 3.49 0 0 0 0 5.484.99.99 0 0 0 .984.223.997.997 0 0 0 .352-1.707A1.793 1.793 0 0 1 59 23c.04-.492.281-.95.668-1.258.41-.367.445-1 .074-1.41zM45 23c0-4.398 1.973-8.652 5.7-12.285a1.002 1.002 0 0 0-.43-1.68.997.997 0 0 0-.97.25C45.18 13.301 43 18.043 43 23c0 4.957 2.18 9.7 6.3 13.715a1 1 0 1 0 1.4-1.43C46.972 31.652 45 27.398 45 23zm0 0"></path>
    <path d="M40 23c0-5.492 2.32-10.785 6.719-15.3a1.006 1.006 0 0 0-.473-1.672 1.008 1.008 0 0 0-.965.273C40.52 11.199 38 16.977 38 23c0 6.023 2.52 11.8 7.281 16.7a1.001 1.001 0 0 0 1.418.019 1.001 1.001 0 0 0 .02-1.418C42.32 33.785 40 28.492 40 23zm0 0"></path>
  </symbol>
  <symbol xmlns="http://www.w3.org/2000/svg" viewBox="0 0 60 60" id="patent">
    <path d="M60 4.453H0v43.613h36.91v7.57l6.563-3.206 6.558 3.207v-7.57H60zM43.473 41.031a5.982 5.982 0 0 1-5.977-5.976 5.984 5.984 0 0 1 5.977-5.977 5.987 5.987 0 0 1 5.976 5.977 5.984 5.984 0 0 1-5.976 5.976zm0 7.489l-3.047 1.484v-5.961a9.37 9.37 0 0 0 3.047.504 9.364 9.364 0 0 0 3.043-.504v5.96zm13.011-3.97h-6.453v-2.644a9.469 9.469 0 0 0 2.934-6.851c0-5.235-4.258-9.492-9.492-9.492-5.235 0-9.493 4.257-9.493 9.492a9.458 9.458 0 0 0 2.93 6.851v2.645H3.516V7.969h52.968zm0 0"></path>
    <path d="M7.035 18.527h45.93v3.516H7.035zm5.278-7.039h35.374v3.516H12.313zM7.035 37.516h17.102v3.515H7.035zm0-7.039h17.102v3.515H7.035zm0 0"></path>
  </symbol>
  <symbol xmlns="http://www.w3.org/2000/svg" viewBox="0 0 59 60" id="phone">
    <path d="M58.871 46.488c-.164-.511-1.226-1.265-3.184-2.258-.53-.312-1.285-.738-2.261-1.277a238.79 238.79 0 0 1-2.66-1.492 99.68 99.68 0 0 1-2.243-1.32c-.113-.086-.46-.336-1.046-.746-.586-.415-1.082-.72-1.489-.918a2.699 2.699 0 0 0-1.195-.297c-.559 0-1.258.406-2.094 1.215a20.713 20.713 0 0 0-2.304 2.64c-.7.953-1.438 1.832-2.22 2.645-.784.808-1.425 1.215-1.929 1.215-.25 0-.566-.075-.941-.215a9.071 9.071 0 0 1-.86-.36c-.195-.101-.53-.3-1.004-.597a24.757 24.757 0 0 0-.796-.493c-3.829-2.16-7.11-4.632-9.848-7.414-2.738-2.785-5.168-6.12-7.293-10.015a27.896 27.896 0 0 0-.48-.809 15.87 15.87 0 0 1-.586-1.023 8.701 8.701 0 0 1-.356-.871c-.14-.387-.21-.703-.21-.961 0-.512.398-1.164 1.194-1.961a25.638 25.638 0 0 1 2.598-2.258 20.27 20.27 0 0 0 2.598-2.344c.797-.851 1.195-1.562 1.195-2.129 0-.398-.102-.8-.297-1.215-.195-.414-.492-.914-.898-1.511a45.423 45.423 0 0 0-.735-1.067 93.128 93.128 0 0 1-1.297-2.277c-.449-.813-.937-1.715-1.468-2.707a94.014 94.014 0 0 0-1.258-2.3c-.977-1.99-1.715-3.071-2.219-3.24C13.09.044 12.797 0 12.406 0c-.758 0-1.742.14-2.957.426-1.215.285-2.172.582-2.867.894-1.398.598-2.879 2.328-4.445 5.2C.715 9.188 0 11.832 0 14.445c0 .766.05 1.512.148 2.239.098.722.274 1.539.524 2.449.25.91.453 1.582.61 2.023.152.442.437 1.227.855 2.364.422 1.136.672 1.832.754 2.09.98 2.785 2.136 5.269 3.48 7.456 2.203 3.637 5.215 7.395 9.027 11.274 3.813 3.875 7.508 6.937 11.086 9.18 2.149 1.363 4.594 2.542 7.332 3.539.25.086.934.34 2.051.765 1.117.426 1.895.719 2.328.875.43.156 1.094.364 1.989.617.894.258 1.699.434 2.41.536.71.097 1.445.148 2.199.148 2.57 0 5.168-.727 7.793-2.172 2.82-1.594 4.527-3.098 5.113-4.52.309-.71.602-1.683.88-2.917.28-1.235.417-2.239.417-3.004.004-.399-.039-.7-.125-.899zm0 0"></path>
  </symbol>
  <symbol xmlns="http://www.w3.org/2000/svg" viewBox="0 0 60 60" id="plug">
    <path d="M46 13h-3V3c0-1.7-1.3-3-3-3s-3 1.3-3 3v10H23V3c0-1.7-1.3-3-3-3s-3 1.3-3 3v10h-3c-.602 0-1 .398-1 1v7.602c0 5 1.898 9.796 5.3 13.5 3 3.398 4.7 7.796 4.7 12.296V50c0 2.8 2.2 5 5 5h1v4c0 .602.398 1 1 1s1-.398 1-1v-4h1c2.8 0 5-2.2 5-5v-2.5c0-4.602 1.602-8.898 4.7-12.3 3.402-3.7 5.3-8.598 5.3-13.598V14c0-.602-.398-1-1-1zM39 3c0-.602.398-1 1-1s1 .398 1 1v10h-2zM19 3c0-.5.398-1 1-1s1 .398 1 1v10h-2zm26 18.5c0 4.602-1.602 8.898-4.7 12.3A20.175 20.175 0 0 0 35 47.399V50c0 1.7-1.3 3-3 3h-4c-1.7 0-3-1.3-3-3v-2.5c0-5-1.898-9.898-5.3-13.602-3-3.398-4.7-7.796-4.7-12.296V15h30zm0 0"></path>
    <path d="M34 26h-5.602l5.301-5.3a.961.961 0 0 0 0-1.4.961.961 0 0 0-1.398 0l-7 7c-.301.302-.403.7-.2 1.098.098.403.5.602.899.602h5.602L26.3 33.3a.961.961 0 0 0 0 1.4c.199.198.398.3.699.3.3 0 .5-.102.7-.3l7-7c.3-.302.402-.7.198-1.098-.097-.403-.5-.602-.898-.602zm0 0"></path>
  </symbol>
  <symbol xmlns="http://www.w3.org/2000/svg" viewBox="0 0 60 60" id="road">
    <path d="M13.125 11.25C5.887 11.25 0 17.137 0 24.375c0 6.734 10.531 18.664 11.73 20.004.356.39.864.621 1.395.621s1.04-.23 1.395-.621c1.199-1.34 11.73-13.27 11.73-20.004 0-7.238-5.887-13.125-13.125-13.125zm0 29.016C9.031 35.406 3.75 27.953 3.75 24.375 3.75 19.207 7.957 15 13.125 15s9.375 4.207 9.375 9.375c0 3.574-5.281 11.031-9.375 15.89zm0 0"></path>
    <path d="M13.125 18.75A5.631 5.631 0 0 0 7.5 24.375 5.631 5.631 0 0 0 13.125 30a5.631 5.631 0 0 0 5.625-5.625 5.631 5.631 0 0 0-5.625-5.625zm0 7.5a1.875 1.875 0 1 1 .001-3.751 1.875 1.875 0 0 1-.001 3.751zm45-26.25h-15C42.09 0 41.25.84 41.25 1.875v18.75a1.875 1.875 0 0 0 3.75 0V15h13.125C59.16 15 60 14.16 60 13.125V1.875C60 .84 59.16 0 58.125 0zM56.25 11.25H45v-7.5h11.25zm-3.75 30H33.75A3.756 3.756 0 0 1 30 37.5a3.756 3.756 0 0 1 3.75-3.75h4.094c.777 2.18 2.84 3.75 5.281 3.75a5.631 5.631 0 0 0 5.625-5.625 5.631 5.631 0 0 0-5.625-5.625c-2.441 0-4.504 1.57-5.281 3.75H33.75a7.507 7.507 0 0 0-7.5 7.5c0 4.137 3.363 7.5 7.5 7.5H52.5a3.756 3.756 0 0 1 3.75 3.75 3.756 3.756 0 0 1-3.75 3.75H18.406c-.777-2.18-2.84-3.75-5.281-3.75A5.631 5.631 0 0 0 7.5 54.375 5.631 5.631 0 0 0 13.125 60c2.441 0 4.504-1.57 5.281-3.75H52.5c4.137 0 7.5-3.363 7.5-7.5 0-4.137-3.363-7.5-7.5-7.5zM43.125 30a1.875 1.875 0 1 1-.001 3.751A1.875 1.875 0 0 1 43.125 30zm-30 26.25a1.875 1.875 0 1 1 .001-3.751 1.875 1.875 0 0 1-.001 3.751zm0 0"></path>
  </symbol>
  <symbol xmlns="http://www.w3.org/2000/svg" viewBox="0 0 185 60" id="separator">
    <path d="M92.5.938c16.012 0 28.992 13.011 28.992 29.062 0 16.059-12.98 29.066-28.992 29.066-16.016 0-28.992-13.007-28.992-29.062S76.484.937 92.5.937zm74.55 11.07c9.915 0 17.95 8.055 17.95 17.992 0 9.938-8.035 17.992-17.95 17.992-9.91 0-17.945-8.054-17.945-17.992s8.036-17.992 17.946-17.992zm-149.1 0c9.91 0 17.945 8.055 17.945 17.992 0 9.938-8.036 17.992-17.946 17.992C8.035 47.992 0 39.938 0 30s8.035-17.992 17.95-17.992zm0 0" fill-rule="evenodd" fill="#f5f5f5"></path>
  </symbol>
  <symbol xmlns="http://www.w3.org/2000/svg" viewBox="0 0 59 60" id="sound">
    <path d="M32.21 3.938a3.382 3.382 0 0 0-3.503.05c-.05.032-.102.067-.148.106L13.195 17.312H1.133A1.145 1.145 0 0 0 0 18.47v21.91c0 .309.117.601.332.816.215.215.5.336.8.336l12.036-.004 15.355 14.348c.059.05.122.098.184.137a3.412 3.412 0 0 0 1.793.515 3.477 3.477 0 0 0 1.71-.465c1.134-.648 1.81-1.84 1.81-3.175V7.113c0-1.336-.676-2.527-1.81-3.176zm-.456 48.949c0 .496-.246.933-.656 1.168a1.168 1.168 0 0 1-1.137.03L14.742 39.868v-5.254c0-.636-.508-1.152-1.133-1.152-.629 0-1.136.516-1.136 1.152v4.61l-10.203.004V19.62h10.203v4.613c0 .637.507 1.153 1.136 1.153.625 0 1.133-.516 1.133-1.153v-5.23L29.945 5.926a1.164 1.164 0 0 1 1.153.02c.41.234.656.671.656 1.167zM43.996 8.148a1.134 1.134 0 0 0-1.437.723c-.2.602.117 1.258.71 1.465 8.051 2.777 13.461 10.45 13.461 19.09 0 8.629-5.398 16.3-13.437 19.09-.59.207-.906.859-.703 1.464.16.48.597.782 1.07.782a1.1 1.1 0 0 0 .367-.063C52.98 47.594 59 39.043 59 29.426c0-9.63-6.027-18.18-15.004-21.278zm0 0"></path>
    <path d="M48.793 29.422c0-6.887-4.547-13.031-11.055-14.945a1.13 1.13 0 0 0-1.406.785 1.16 1.16 0 0 0 .777 1.43c5.543 1.628 9.418 6.867 9.418 12.73 0 5.867-3.875 11.105-9.418 12.734a1.158 1.158 0 0 0-.777 1.426c.145.508.598.836 1.09.836.105 0 .21-.016.316-.047 6.512-1.914 11.055-8.059 11.055-14.95zm0 0"></path>
  </symbol>
  <symbol xmlns="http://www.w3.org/2000/svg" viewBox="0 0 60 60" id="time">
    <path d="M31.633 37.988a3.548 3.548 0 0 0 2.605-1.457l9.364-12.945a.998.998 0 0 0-.102-1.293 1.003 1.003 0 0 0-1.293-.105l-12.945 9.367a3.568 3.568 0 0 0-.426 5.402 3.56 3.56 0 0 0 2.797 1.031zm-1.836-3.672a1.57 1.57 0 0 1 .637-1.144l7.898-5.711-5.71 7.894c-.27.372-.688.606-1.145.641a1.592 1.592 0 0 1-1.227-.453 1.578 1.578 0 0 1-.453-1.227zm0 0"></path>
    <path d="M54.035 19.563c-.012-.02-.012-.043-.023-.063-.012-.02-.032-.031-.043-.05a27.105 27.105 0 0 0-3.567-4.81l2.149-2.148 1.414 1.414 4.242-4.242-4.242-4.242-4.242 4.242 1.414 1.414-2.149 2.149A27.105 27.105 0 0 0 44.18 9.66c-.02-.012-.028-.031-.047-.043-.024-.012-.043-.012-.067-.023A26.792 26.792 0 0 0 33.793 6.19V5h1.5c1.379 0 2.5-1.121 2.5-2.5S36.672 0 35.293 0h-9a2.502 2.502 0 0 0-2.5 2.5c0 1.379 1.121 2.5 2.5 2.5h1.5v1.156c-1.078.114-2.156.29-3.223.535-.539.122-.875.66-.754 1.2.125.535.66.875 1.2.75a25.193 25.193 0 0 1 2.78-.477l1.071-.086c.328-.023.633-.043.926-.055V10c0 .555.445 1 1 1 .555 0 1-.445 1-1V8.031a24.822 24.822 0 0 1 10.457 2.844l-.988 1.707a.999.999 0 0 0 .867 1.5c.344 0 .68-.18.867-.5l.98-1.703a25.192 25.192 0 0 1 7.774 7.773l-1.703.98a1 1 0 0 0 1.004 1.735l1.707-.988A24.866 24.866 0 0 1 55.605 32H53.63a1 1 0 1 0 0 2h1.976a24.85 24.85 0 0 1-2.847 10.617l-1.707-.984a1 1 0 0 0-1.367.363.998.998 0 0 0 .367 1.367l1.703.985a25.221 25.221 0 0 1-7.774 7.77l-.984-1.704a.998.998 0 0 0-1.363-.363.994.994 0 0 0-.367 1.363l.984 1.707a24.75 24.75 0 0 1-10.453 2.848V56a1 1 0 1 0-2 0v1.977a25.125 25.125 0 0 1-4.777-.618.996.996 0 0 0-1.2.75c-.125.54.215 1.075.75 1.2A26.97 26.97 0 0 0 30.63 60c.05 0 .098-.004.144-.004.008 0 .012.004.02.004s.016-.004.023-.004a26.854 26.854 0 0 0 13.22-3.574c.03-.016.062-.02.093-.04.02-.01.031-.03.05-.042a27.221 27.221 0 0 0 9.774-9.762c.02-.027.043-.047.059-.078.011-.02.011-.043.02-.063A26.803 26.803 0 0 0 57.628 33a26.84 26.84 0 0 0-3.594-13.438zm-.07-11.313l1.414 1.414-1.414 1.414-1.414-1.414zM29.793 6.02V3h-3.5a.504.504 0 0 1-.5-.5c0-.273.227-.5.5-.5h9c.273 0 .5.227.5.5s-.227.5-.5.5h-3.5v3.02c-.348-.012-.68-.02-1-.02-.027 0-.059.004-.09.004-.023 0-.047-.004-.074-.004-.164 0-.328.012-.492.016-.114 0-.223 0-.344.004zm-8 7.98h-5c-.555 0-1 .445-1 1 0 .555.445 1 1 1h5c.555 0 1-.445 1-1 0-.555-.445-1-1-1zm0 7h-10c-.555 0-1 .445-1 1 0 .555.445 1 1 1h10c.555 0 1-.445 1-1 0-.555-.445-1-1-1zm0 7h-15c-.555 0-1 .445-1 1 0 .555.445 1 1 1h15c.555 0 1-.445 1-1 0-.555-.445-1-1-1zm0 7h-19c-.555 0-1 .445-1 1 0 .555.445 1 1 1h19c.555 0 1-.445 1-1 0-.555-.445-1-1-1zm0 7h-13c-.555 0-1 .445-1 1 0 .555.445 1 1 1h13c.555 0 1-.445 1-1 0-.555-.445-1-1-1zm0 7h-7c-.555 0-1 .445-1 1 0 .555.445 1 1 1h7c.555 0 1-.445 1-1 0-.555-.445-1-1-1zm0 0"></path>
  </symbol>
</svg>